<svg width="18" height="20" viewBox="0 0 18 20" fill="none" xmlns="http://www.w3.org/2000/svg">
<path d="M8.9998 0.400391C5.0278 0.400391 1.7998 3.62839 1.7998 7.60039C1.7998 10.0244 3.2038 12.0524 4.8358 13.4684C5.3518 13.9124 6.2518 14.6204 7.0558 15.6644C7.9438 16.8284 8.7478 18.0764 8.9998 18.9164C9.2518 18.0764 10.0558 16.8284 10.9438 15.6644C11.7478 14.6204 12.6478 13.9124 13.1638 13.4684C14.7958 12.0524 16.1998 10.0244 16.1998 7.60039C16.1998 3.62839 12.9718 0.400391 8.9998 0.400391ZM8.9998 3.47239C9.5419 3.47239 10.0787 3.57916 10.5795 3.78662C11.0804 3.99407 11.5354 4.29813 11.9187 4.68145C12.3021 5.06477 12.6061 5.51984 12.8136 6.02067C13.021 6.5215 13.1278 7.05829 13.1278 7.60039C13.1278 8.14249 13.021 8.67928 12.8136 9.18011C12.6061 9.68094 12.3021 10.136 11.9187 10.5193C11.5354 10.9026 11.0804 11.2067 10.5795 11.4142C10.0787 11.6216 9.5419 11.7284 8.9998 11.7284C7.90499 11.7284 6.85502 11.2935 6.08087 10.5193C5.30672 9.74518 4.8718 8.6952 4.8718 7.60039C4.8718 6.50558 5.30672 5.4556 6.08087 4.68145C6.85502 3.9073 7.90499 3.47239 8.9998 3.47239Z" fill="#1E1E1E"/>
</svg>
