<svg width="33" height="33" viewBox="0 0 33 33" fill="none" xmlns="http://www.w3.org/2000/svg">
<path fill-rule="evenodd" clip-rule="evenodd" d="M21.5366 5.18852C19.0991 4.10241 16.3757 3.83335 13.7728 4.42145C11.1698 5.00956 8.8267 6.42332 7.09287 8.4519C5.35905 10.4805 4.32741 13.0152 4.15183 15.678C3.97624 18.3408 4.66612 20.989 6.11857 23.2276C7.57101 25.4663 9.70821 27.1755 12.2114 28.1003C14.7146 29.0251 17.4497 29.116 20.0088 28.3593C22.5678 27.6027 24.8137 26.0391 26.4116 23.9018C28.0094 21.7644 28.8735 19.1678 28.875 16.4993V15.2351C28.875 14.4757 29.4906 13.8601 30.25 13.8601C31.0094 13.8601 31.625 14.4757 31.625 15.2351V16.5001C31.6231 19.7616 30.567 22.936 28.6141 25.5484C26.6612 28.1607 23.9162 30.0717 20.7885 30.9965C17.6607 31.9213 14.3179 31.8102 11.2584 30.6799C8.19892 29.5496 5.58679 27.4606 3.81158 24.7244C2.03637 21.9882 1.19318 18.7515 1.40779 15.497C1.62239 12.2425 2.88328 9.14454 5.0024 6.66517C7.12152 4.1858 9.98534 2.45786 13.1667 1.73907C16.3481 1.02027 19.6767 1.34913 22.6559 2.6766C23.3495 2.98567 23.6613 3.79853 23.3522 4.49218C23.0431 5.18583 22.2303 5.4976 21.5366 5.18852Z" fill="#00A2C0"/>
<path fill-rule="evenodd" clip-rule="evenodd" d="M31.2218 4.52724C31.759 5.06394 31.7595 5.93455 31.2228 6.47179L17.4728 20.2355C17.2149 20.4936 16.8651 20.6387 16.5003 20.6388C16.1356 20.6388 15.7857 20.494 15.5277 20.236L11.4027 16.111C10.8658 15.5741 10.8658 14.7034 11.4027 14.1665C11.9397 13.6295 12.8103 13.6295 13.3473 14.1665L16.4995 17.3187L29.2772 4.52821C29.8139 3.99098 30.6845 3.99054 31.2218 4.52724Z" fill="#00A2C0"/>
</svg>
