<svg width="30" height="30" viewBox="0 0 30 30" fill="none" xmlns="http://www.w3.org/2000/svg">
<path d="M25.0003 13.7487H27.5003C27.5003 7.33625 22.659 2.5 16.2378 2.5V5C21.3153 5 25.0003 8.67875 25.0003 13.7487Z" fill="url(#paint0_radial)"/>
<path d="M16.2499 9.99981C18.8786 9.99981 19.9999 11.1211 19.9999 13.7498H22.4999C22.4999 9.71856 20.2811 7.49981 16.2499 7.49981V9.99981ZM20.5274 16.8036C20.2872 16.5853 19.9715 16.4688 19.6471 16.4789C19.3227 16.4889 19.0149 16.6246 18.7886 16.8573L15.7974 19.9336C15.0774 19.7961 13.6299 19.3448 12.1399 17.8586C10.6499 16.3673 10.1986 14.9161 10.0649 14.2011L13.1386 11.2086C13.3716 10.9825 13.5075 10.6746 13.5176 10.3501C13.5276 10.0256 13.411 9.70986 13.1924 9.46981L8.57361 4.39106C8.35492 4.15026 8.05096 4.00419 7.72631 3.98389C7.40165 3.96358 7.08186 4.07063 6.83486 4.28231L4.12236 6.60856C3.90625 6.82545 3.77726 7.11412 3.75986 7.41981C3.74111 7.73231 3.38361 15.1348 9.12361 20.8773C14.1311 25.8836 20.4036 26.2498 22.1311 26.2498C22.3836 26.2498 22.5386 26.2423 22.5799 26.2398C22.8855 26.2227 23.174 26.0931 23.3899 25.8761L25.7149 23.1623C25.9267 22.9155 26.034 22.5958 26.0139 22.2711C25.9938 21.9465 25.848 21.6424 25.6074 21.4236L20.5274 16.8036Z" fill="url(#paint1_radial)"/>
<defs>
<radialGradient id="paint0_radial" cx="0" cy="0" r="1" gradientUnits="userSpaceOnUse" gradientTransform="translate(21.869 0.700199) rotate(90) scale(16.7981 16.8187)">
<stop stop-color="#6CE5FF"/>
<stop offset="0.238105" stop-color="#5DCAF5"/>
<stop offset="0.619729" stop-color="#4DACE9"/>
</radialGradient>
<radialGradient id="paint1_radial" cx="0" cy="0" r="1" gradientUnits="userSpaceOnUse" gradientTransform="translate(14.8829 0.418505) rotate(90) scale(33.2541 33.2517)">
<stop stop-color="#6CE5FF"/>
<stop offset="0.238105" stop-color="#5DCAF5"/>
<stop offset="0.619729" stop-color="#4DACE9"/>
</radialGradient>
</defs>
</svg>
